<svg aria-hidden="true" style="position: absolute; width: 0; height: 0; overflow: hidden;" version="1.1" xmlns="http://www.w3.org/2000/svg" xmlns:xlink="http://www.w3.org/1999/xlink">
<defs>
<symbol id="logo-icon" viewBox="0 0 40 32">
<path d="M13.309 2.255c-7.273 4.654-7.2 15.782 0.073 20.218 3.2 2.036 10.109 2.109 13.018 0.218 7.491-5.018 7.636-15.854 0.218-20.436-3.345-2.109-10.109-2.109-13.309 0zM0 29.091v2.982l6.764-0.145c4.073-0.073 6.909-0.436 7.2-0.945 0.436-0.582 0.582-0.509 0.582 0.073 0 0.509 0.655 0.945 1.527 0.945 1.382 0 1.382-0.073 0.364-1.6-1.018-1.455-1.018-1.745 0.073-2.909 1.091-1.236 0.873-1.309-5.745-1.309-6.909 0-6.909 0-6.618 1.745 0.218 1.091-0.073 1.818-0.8 2.109-0.873 0.364-1.164 0-1.164-1.673 0-1.455-0.364-2.182-1.091-2.182-0.8 0-1.091 0.8-1.091 2.909zM19.273 29.091c0 2.545 0.218 2.909 1.6 2.909 1.018 0 1.527-0.364 1.236-0.945-0.218-0.582 0.218-0.945 1.091-0.945 1.091 0 1.236 0.218 0.655 0.945s-0.436 0.945 0.727 0.945c0.8 0 1.673-0.436 1.891-0.945 0.364-0.727 0.509-0.727 0.873 0 0.291 0.655 2.327 0.945 6.545 0.945 5.6 0 7.345-0.582 5.382-1.818-0.582-0.364-0.509-0.8 0-1.455 1.455-1.745 0.073-2.545-4.291-2.545h-4.145l0.291 2.618c0.364 3.127-0.655 2.909-2.036-0.436-1.018-2.473-1.964-2.764-3.345-0.945-0.945 1.236-1.018 1.236-0.582 0 0.364-1.018 0-1.236-2.691-1.236h-3.2v2.909z"></path>
</symbol>
<symbol id="magnifying-glass-icon" viewBox="0 0 32 32">
<path d="M4.894 4.894c-3.953 3.765-3.953 14.682 0 18.447 1.506 1.694 5.835 3.012 9.412 3.012s8.094 0.941 10.165 2.259c4.706 3.012 7.153 0.565 4.141-4.141-1.318-2.071-2.259-6.588-2.259-10.165s-1.318-7.906-3.012-9.412c-3.765-3.953-14.682-3.953-18.447 0z"></path>
</symbol>
<symbol id="mobile-menu-icon" viewBox="0 0 42 32">
<path d="M4.894 4.894c-3.953 3.765-3.953 14.682 0 18.447 1.506 1.694 5.835 3.012 9.412 3.012s8.094 0.941 10.165 2.259c4.706 3.012 7.153 0.565 4.141-4.141-1.318-2.071-2.259-6.588-2.259-10.165s-1.318-7.906-3.012-9.412c-3.765-3.953-14.682-3.953-18.447 0z"></path>
</symbol>
<symbol id="profile-icon" viewBox="0 0 149 32">
<path d="M5.76 4.96c-5.76 4.48-6.080 16.8-0.48 21.92 5.28 4.96 16.8 4.96 21.6-0.16 5.28-5.6 4.96-17.44-0.64-21.76s-14.88-4.32-20.48 0zM97.599 10.4c0 1.28-1.28 2.4-2.88 2.4s-3.68 0.8-4.64 1.76c-1.28 1.28-2.080 1.28-2.72 0-1.76-2.72-10.24-2.080-11.84 0.8-1.28 2.4-1.6 2.4-2.4 0-0.64-1.76-3.040-2.56-7.52-2.56h-6.4v8c0 4.32 0.8 8 1.6 8 0.96 0 1.6-1.12 1.6-2.4 0-1.6 1.6-2.4 4.8-2.4 2.56 0 5.28-1.12 6.080-2.56 1.28-2.4 1.6-2.4 2.4 0 1.12 2.88 9.12 3.52 11.84 0.8 1.28-1.28 2.080-1.28 2.72 0 0.64 0.96 2.56 1.76 4.32 1.76 1.6 0 3.040 1.12 3.040 2.4s1.12 2.4 2.4 2.4 2.4-1.12 2.4-2.4c0-2.080 5.28-3.36 10.24-2.56 0.8 0.16 3.040-1.28 5.12-3.2l3.84-3.52v3.36c0 4.32 5.44 4.8 8 0.64 1.6-2.56 1.6-2.56 3.2 0 1.28 1.92 3.84 2.88 8 2.88 5.28 0 6.4-0.48 6.4-3.2 0-2.080-1.12-3.2-3.2-3.2-1.76 0-3.2-1.12-3.2-2.4s-0.64-2.4-1.6-2.4c-0.8 0-1.6 1.92-1.6 4.32l-0.16 4.48-2.4-4.48c-3.040-5.6-4.32-5.44-7.52 0.8l-2.56 5.28v-5.28c-0.16-6.080-1.12-6.24-6.080-1.6l-3.68 3.36v-3.52c0-1.92-0.96-3.36-1.92-3.2-6.080 0.8-10.88-0.32-10.88-2.56 0-1.28-1.12-2.4-2.4-2.4s-2.4 1.12-2.4 2.4z"></path>
</symbol>
<symbol id="cart-icon" viewBox="0 0 33 32">
<path d="M10.368 6.912c-1.92 2.944-2.688 6.4-2.688 11.52v7.168h17.92v-7.168c0-9.472-3.712-15.872-8.96-15.872-2.688 0-4.224 1.024-6.272 4.352z"></path>
</symbol>
<symbol id="favorites-icon" viewBox="0 0 39 32">
<path d="M3.022 3.2c-1.778 1.956-3.022 6.222-3.022 10.489 0 6.044 1.067 8.178 5.511 11.911 9.778 8.178 18.311 8.178 28.089 0 4.622-3.733 5.511-5.867 5.511-12.089 0-11.2-3.378-13.511-19.911-13.511-10.667 0-13.867 0.711-16.178 3.2zM16.178 5.333c2.311 1.422 4.444 1.244 6.933 0 4.089-2.133 9.6 0 11.378 4.444 2.844 7.644-8.889 18.311-17.955 16-5.333-1.244-12.978-8.533-12.978-12.444 0-2.489 6.044-9.778 8.178-9.778 0.533 0 2.489 0.889 4.444 1.778z"></path>
</symbol>
</defs>
</svg>
